<svg width="512" height="512" id="Layer_1" xmlns="http://www.w3.org/2000/svg" xmlns:xlink="http://www.w3.org/1999/xlink" version="1.1" viewBox="195.2 40.6 953.2 953.2">
  
  <defs>
    <style>
      .st0, .st1 {
        fill: none;
      }

      .st2 {
        fill: url(#radial-gradient12);
      }

      .st3 {
        fill: url(#radial-gradient10);
      }

      .st4 {
        fill: url(#radial-gradient11);
      }

      .st5 {
        fill: url(#radial-gradient);
      }

      .st6 {
        fill: #01a6c2;
      }

      .st7 {
        fill: #001749;
      }

      .st8 {
        fill: red;
      }

      .st9 {
        fill: url(#radial-gradient1);
      }

      .st10 {
        fill: url(#radial-gradient6);
      }

      .st11 {
        fill: url(#radial-gradient9);
      }

      .st12 {
        fill: url(#radial-gradient8);
      }

      .st13 {
        fill: url(#radial-gradient3);
      }

      .st14 {
        fill: url(#radial-gradient2);
      }

      .st15 {
        fill: url(#radial-gradient5);
      }

      .st16 {
        fill: url(#radial-gradient4);
      }

      .st17 {
        fill: url(#radial-gradient7);
      }

      .st1 {
        stroke: #001749;
        stroke-miterlimit: 10;
      }
    </style>
    <radialGradient id="radial-gradient" cx="664.66" cy="542.32" fx="664.66" fy="542.32" r="150.67" gradientUnits="userSpaceOnUse">
      <stop offset="0" stop-color="#fff"/>
      <stop offset=".1" stop-color="#fbfcfe"/>
      <stop offset=".18" stop-color="#f0f6fe"/>
      <stop offset=".26" stop-color="#dfebfe"/>
      <stop offset=".33" stop-color="#c6dbfe"/>
      <stop offset=".41" stop-color="#a5c6fe"/>
      <stop offset=".48" stop-color="#7dadfe"/>
      <stop offset=".55" stop-color="#4e90fe"/>
      <stop offset=".62" stop-color="#196ffe"/>
      <stop offset=".65" stop-color="#005ffe"/>
      <stop offset=".69" stop-color="#005cf8"/>
      <stop offset=".74" stop-color="#0056e9"/>
      <stop offset=".8" stop-color="#004ccf"/>
      <stop offset=".87" stop-color="#003eac"/>
      <stop offset=".93" stop-color="#002c7e"/>
      <stop offset="1" stop-color="#001749"/>
    </radialGradient>
    <radialGradient id="radial-gradient1" r="150.67" xlink:href="#radial-gradient"/>
    <radialGradient id="radial-gradient2" r="150.67" xlink:href="#radial-gradient"/>
    <radialGradient id="radial-gradient3" r="150.67" xlink:href="#radial-gradient"/>
    <radialGradient id="radial-gradient4" r="150.67" xlink:href="#radial-gradient"/>
    <radialGradient id="radial-gradient5" r="150.67" xlink:href="#radial-gradient"/>
    <radialGradient id="radial-gradient6" r="150.67" xlink:href="#radial-gradient"/>
    <radialGradient id="radial-gradient7" r="150.67" xlink:href="#radial-gradient"/>
    <radialGradient id="radial-gradient8" r="150.67" xlink:href="#radial-gradient"/>
    <radialGradient id="radial-gradient9" r="150.67" xlink:href="#radial-gradient"/>
    <radialGradient id="radial-gradient10" r="150.67" xlink:href="#radial-gradient"/>
    <radialGradient id="radial-gradient11" r="150.67" xlink:href="#radial-gradient"/>
    <radialGradient id="radial-gradient12" r="150.67" xlink:href="#radial-gradient"/>
  </defs>
  <path class="st1" d="M894.53,537.42c0,117.69-99.75,213.09-222.79,213.09s-222.78-95.4-222.78-213.09,99.74-213.08,222.78-213.08c43.7,0,84.46,12.03,118.86,32.84l-22.14,23.05c-28.4-16.09-61.53-25.33-96.91-25.33-105.25,0-190.57,81.71-190.57,182.51s85.32,182.51,190.57,182.51,190.56-81.71,190.56-182.51c0-36.21-11.01-69.96-30-98.35l24.97-19.92c23.65,33.84,37.45,74.52,37.45,118.28Z"/>
  <path class="st7" d="M937.98,481.2c-7.83-34.91-22.96-67.21-43.79-95.37l44.37-37.62c31.34,41.1,52.63,89.74,60.4,142.58l-60.98-9.59Z"/>
  <path class="st7" d="M732.07,282.17l-8.53-59.89c52.75,7.85,101.38,27.75,142.74,56.68l-40.65,42.24c-27.89-18.3-59.52-31.73-93.56-39.03Z"/>
  <path class="st7" d="M406.72,481.81l-60.24,8.48c20.61-138.29,133.96-247.86,277.58-268.32l-9.54,59.82c-103.93,21.62-185.68,100.25-207.8,200.02Z"/>
  <path class="st7" d="M613.42,790.39l9.32,58.83c-144.13-21.05-257.68-131.99-276.79-271.69l59.98,9.41c20.84,101.15,102.81,181.24,207.49,203.45Z"/>
  <path class="st7" d="M999.35,577.69c-19.23,139.72-133.03,250.83-277.58,271.63l10.02-59.02c104.5-22.32,186.3-102.34,207.11-203.36l60.45-9.25Z"/>
  <path class="st0" d="M894.53,537.42c0,117.69-99.75,213.09-222.79,213.09s-222.78-95.4-222.78-213.09,99.74-213.08,222.78-213.08c43.7,0,84.46,12.03,118.86,32.84l-22.14,23.05c-28.4-16.09-61.53-25.33-96.91-25.33-105.25,0-190.57,81.71-190.57,182.51s85.32,182.51,190.57,182.51,190.56-81.71,190.56-182.51c0-36.21-11.01-69.96-30-98.35l24.97-19.92c23.65,33.84,37.45,74.52,37.45,118.28Z"/>
  <path class="st7" d="M894.53,537.42c0,117.69-99.75,213.09-222.79,213.09s-222.78-95.4-222.78-213.09,99.74-213.08,222.78-213.08c43.7,0,84.46,12.03,118.86,32.84l-22.14,23.05c-28.4-16.09-61.53-25.33-96.91-25.33-105.25,0-190.57,81.71-190.57,182.51s85.32,182.51,190.57,182.51,190.56-81.71,190.56-182.51c0-36.21-11.01-69.96-30-98.35l24.97-19.92c23.65,33.84,37.45,74.52,37.45,118.28Z"/>
  <path class="st8" d="M965.76,297.71l20.87,40.37,69.78-181.53-177.17,82.28,38.51,18.42s-204,202.63-269.74,296.02c0,0,93.41-55.65,317.75-255.56Z"/>
  <g>
    <path class="st5" d="M669.09,442.16c13.41,0,26.2,2.49,37.9,7.02l-118.29,146.58c-12.79-16.06-20.37-36.08-20.37-57.77,0-52.92,45.11-95.83,100.76-95.83Z"/>
    <path class="st9" d="M598.04,605.94l162.72-107.77c5.84,12.13,9.09,25.61,9.09,39.82,0,52.93-45.11,95.83-100.76,95.83-27.73,0-52.83-10.65-71.05-27.88Z"/>
    <path class="st14" d="M817.44,538.86c0,78.15-66.13,141.51-147.7,141.51s-147.7-63.36-147.7-141.51,66.13-141.5,147.7-141.5c24.96,0,48.47,5.93,69.09,16.4l-19.74,20.42c-15.15-6.59-31.99-10.26-49.73-10.26-66.28,0-120.01,51.26-120.01,114.5s53.73,114.51,120.01,114.51,120-51.27,120-114.51c0-19-4.85-36.91-13.43-52.68l21.65-17.78c12.63,20.85,19.86,45.07,19.86,70.9Z"/>
    <path class="st5" d="M669.09,442.16c13.41,0,26.2,2.49,37.9,7.02l-118.29,146.58c-12.79-16.06-20.37-36.08-20.37-57.77,0-52.92,45.11-95.83,100.76-95.83Z"/>
    <path class="st13" d="M598.04,605.94l162.72-107.77c5.84,12.13,9.09,25.61,9.09,39.82,0,52.93-45.11,95.83-100.76,95.83-27.73,0-52.83-10.65-71.05-27.88Z"/>
    <path class="st16" d="M817.44,538.86c0,78.15-66.13,141.51-147.7,141.51s-147.7-63.36-147.7-141.51,66.13-141.5,147.7-141.5c24.96,0,48.47,5.93,69.09,16.4l-19.74,20.42c-15.15-6.59-31.99-10.26-49.73-10.26-66.28,0-120.01,51.26-120.01,114.5s53.73,114.51,120.01,114.51,120-51.27,120-114.51c0-19-4.85-36.91-13.43-52.68l21.65-17.78c12.63,20.85,19.86,45.07,19.86,70.9Z"/>
    <path class="st5" d="M669.09,442.16c13.41,0,26.2,2.49,37.9,7.02l-118.29,146.58c-12.79-16.06-20.37-36.08-20.37-57.77,0-52.92,45.11-95.83,100.76-95.83Z"/>
    <path class="st15" d="M598.04,605.94l162.72-107.77c5.84,12.13,9.09,25.61,9.09,39.82,0,52.93-45.11,95.83-100.76,95.83-27.73,0-52.83-10.65-71.05-27.88Z"/>
    <path class="st10" d="M817.44,538.86c0,78.15-66.13,141.51-147.7,141.51s-147.7-63.36-147.7-141.51,66.13-141.5,147.7-141.5c24.96,0,48.47,5.93,69.09,16.4l-19.74,20.42c-15.15-6.59-31.99-10.26-49.73-10.26-66.28,0-120.01,51.26-120.01,114.5s53.73,114.51,120.01,114.51,120-51.27,120-114.51c0-19-4.85-36.91-13.43-52.68l21.65-17.78c12.63,20.85,19.86,45.07,19.86,70.9Z"/>
    <path class="st5" d="M669.09,442.16c13.41,0,26.2,2.49,37.9,7.02l-118.29,146.58c-12.79-16.06-20.37-36.08-20.37-57.77,0-52.92,45.11-95.83,100.76-95.83Z"/>
    <path class="st17" d="M598.04,605.94l162.72-107.77c5.84,12.13,9.09,25.61,9.09,39.82,0,52.93-45.11,95.83-100.76,95.83-27.73,0-52.83-10.65-71.05-27.88Z"/>
    <path class="st12" d="M817.44,538.86c0,78.15-66.13,141.51-147.7,141.51s-147.7-63.36-147.7-141.51,66.13-141.5,147.7-141.5c24.96,0,48.47,5.93,69.09,16.4l-19.74,20.42c-15.15-6.59-31.99-10.26-49.73-10.26-66.28,0-120.01,51.26-120.01,114.5s53.73,114.51,120.01,114.51,120-51.27,120-114.51c0-19-4.85-36.91-13.43-52.68l21.65-17.78c12.63,20.85,19.86,45.07,19.86,70.9Z"/>
    <path class="st5" d="M669.09,442.16c13.41,0,26.2,2.49,37.9,7.02l-118.29,146.58c-12.79-16.06-20.37-36.08-20.37-57.77,0-52.92,45.11-95.83,100.76-95.83Z"/>
    <path class="st11" d="M598.04,605.94l162.72-107.77c5.84,12.13,9.09,25.61,9.09,39.82,0,52.93-45.11,95.83-100.76,95.83-27.73,0-52.83-10.65-71.05-27.88Z"/>
    <path class="st3" d="M817.44,538.86c0,78.15-66.13,141.51-147.7,141.51s-147.7-63.36-147.7-141.51,66.13-141.5,147.7-141.5c24.96,0,48.47,5.93,69.09,16.4l-19.74,20.42c-15.15-6.59-31.99-10.26-49.73-10.26-66.28,0-120.01,51.26-120.01,114.5s53.73,114.51,120.01,114.51,120-51.27,120-114.51c0-19-4.85-36.91-13.43-52.68l21.65-17.78c12.63,20.85,19.86,45.07,19.86,70.9Z"/>
    <path class="st5" d="M706.99,449.18l-118.29,146.58c-12.79-16.06-20.37-36.08-20.37-57.77,0-52.92,45.11-95.83,100.76-95.83,13.41,0,26.2,2.49,37.9,7.02Z"/>
    <path class="st4" d="M769.85,537.99c0,52.93-45.11,95.83-100.76,95.83-27.73,0-52.83-10.65-71.05-27.88l162.72-107.77c5.84,12.13,9.09,25.61,9.09,39.82Z"/>
    <path class="st5" d="M706.99,449.18l-118.29,146.58c-12.79-16.06-20.37-36.08-20.37-57.77,0-52.92,45.11-95.83,100.76-95.83,13.41,0,26.2,2.49,37.9,7.02Z"/>
    <path class="st2" d="M769.85,537.99c0,52.93-45.11,95.83-100.76,95.83-27.73,0-52.83-10.65-71.05-27.88l162.72-107.77c5.84,12.13,9.09,25.61,9.09,39.82Z"/>
  </g>
  <path class="st6" d="M849.7,629.66c-33.89,61.41-100.86,103.21-177.94,103.21s-144.31-41.96-178.14-103.57c2.63-1.44,7.52-4.08,10.1-5.35,32.19,57.14,95.28,95.97,167.83,95.97s135.92-39.01,168.04-96.37l10.11,6.11Z"/>
  <polygon class="st7" points="209.24 536.14 458.7 576.71 457.65 493.1 209.24 536.14"/>
  <polygon class="st7" points="1134.27 533.67 884.81 493.1 885.85 576.71 1134.27 533.67"/>
  <polygon class="st7" points="717.48 330.97 674.05 40.62 627.35 341.27 717.48 330.97"/>
  <polygon class="st7" points="627.28 743.93 672.22 993.77 717.35 741.38 627.28 743.93"/>
  <g>
    <g>
      <path class="st8" d="M144.43,1133.37v-133.2h47.16c29.7,0,45.54,12.78,45.54,36.18v2.52c0,12.42-4.86,20.88-13.14,25.92,11.52,4.86,18.54,14.04,18.54,29.16v2.52c0,23.4-15.66,36.9-45.54,36.9h-52.56ZM169.45,1020.69v35.64h24.48c12.24,0,17.82-7.02,17.82-17.82s-5.58-17.82-17.82-17.82h-24.48ZM169.45,1076.13v36.72h29.34c12.06,0,18.36-6.84,18.36-18.54s-6.3-18.18-18.36-18.18h-29.34Z"/>
      <path class="st8" d="M288.07,1135.53c-22.68,0-35.46-14.94-35.46-44.28v-56.7h25.02v58.86c0,12.06,7.38,19.62,18.72,19.62s19.62-7.92,19.62-20.7v-57.78h25.02v97.92h-19.8v-22.68c-4.14,17.1-14.76,25.74-32.04,25.74h-1.08Z"/>
      <path class="st8" d="M350.17,1103.31h22.5c.54,6.84,7.02,13.32,21.42,13.32,11.88,0,19.62-4.68,19.62-12.06,0-6.48-4.68-10.26-17.82-11.52l-8.64-.9c-21.96-2.34-34.02-12.78-34.02-29.52,0-19.98,16.38-30.78,39.42-30.78s40.14,10.8,40.86,31.14h-22.5c-.54-6.84-6.66-12.24-18.54-12.24-10.62,0-16.56,4.5-16.56,10.98,0,6.12,4.32,9.36,14.94,10.62l8.64.9c22.86,2.34,36.9,12.96,36.9,30.42,0,19.26-16.92,31.86-42.66,31.86-27,0-42.84-12.06-43.56-32.22Z"/>
      <path class="st8" d="M450.25,1132.47v-79.02h-13.68v-18.72h38.7v97.74h-25.02ZM445.03,1009.35c0-7.92,4.5-13.5,14.4-13.5s14.22,5.58,14.22,13.5-4.5,13.68-14.22,13.68-14.4-5.76-14.4-13.68Z"/>
      <path class="st8" d="M492.54,1132.47v-97.74h19.8v24.12c4.14-18,15.3-27.18,33.48-27.18h1.08c23.22,0,35.46,15.12,35.46,44.82v55.98h-25.02v-58.14c0-12.06-7.38-20.16-19.26-20.16s-20.52,8.28-20.52,20.88v57.42h-25.02Z"/>
      <path class="st8" d="M591.18,1085.31v-3.42c0-25.92,16.92-50.58,49.14-50.58s48.06,23.58,48.06,49.32v9h-73.44c1.62,15.3,9.9,25.56,26.46,25.56,12.06,0,20.16-5.58,22.32-12.78h23.04c-4.32,20.16-21.24,33.48-45.36,33.48-33.66,0-50.22-25.56-50.22-50.58ZM615.3,1074.33h49.14c-1.98-14.22-10.08-22.32-24.12-22.32s-22.5,8.28-25.02,22.32Z"/>
      <path class="st8" d="M689.64,1103.31h22.5c.54,6.84,7.02,13.32,21.42,13.32,11.88,0,19.62-4.68,19.62-12.06,0-6.48-4.68-10.26-17.82-11.52l-8.64-.9c-21.96-2.34-34.02-12.78-34.02-29.52,0-19.98,16.38-30.78,39.42-30.78s40.14,10.8,40.86,31.14h-22.5c-.54-6.84-6.66-12.24-18.54-12.24-10.62,0-16.56,4.5-16.56,10.98,0,6.12,4.32,9.36,14.94,10.62l8.64.9c22.86,2.34,36.9,12.96,36.9,30.42,0,19.26-16.92,31.86-42.66,31.86-27,0-42.84-12.06-43.56-32.22Z"/>
      <path class="st8" d="M776.94,1103.31h22.5c.54,6.84,7.02,13.32,21.42,13.32,11.88,0,19.62-4.68,19.62-12.06,0-6.48-4.68-10.26-17.82-11.52l-8.64-.9c-21.96-2.34-34.02-12.78-34.02-29.52,0-19.98,16.38-30.78,39.42-30.78s40.14,10.8,40.86,31.14h-22.5c-.54-6.84-6.66-12.24-18.54-12.24-10.62,0-16.56,4.5-16.56,10.98,0,6.12,4.32,9.36,14.94,10.62l8.64.9c22.86,2.34,36.9,12.96,36.9,30.42,0,19.26-16.92,31.86-42.66,31.86-27,0-42.84-12.06-43.56-32.22Z"/>
    </g>
    <g>
      <path class="st7" d="M144.43,1133.37v-133.2h47.16c29.7,0,45.54,12.78,45.54,36.18v2.52c0,12.42-4.86,20.88-13.14,25.92,11.52,4.86,18.54,14.04,18.54,29.16v2.52c0,23.4-15.66,36.9-45.54,36.9h-52.56ZM169.45,1020.69v35.64h24.48c12.24,0,17.82-7.02,17.82-17.82s-5.58-17.82-17.82-17.82h-24.48ZM169.45,1076.13v36.72h29.34c12.06,0,18.36-6.84,18.36-18.54s-6.3-18.18-18.36-18.18h-29.34Z"/>
      <path class="st7" d="M288.07,1135.53c-22.68,0-35.46-14.94-35.46-44.28v-56.7h25.02v58.86c0,12.06,7.38,19.62,18.72,19.62s19.62-7.92,19.62-20.7v-57.78h25.02v97.92h-19.8v-22.68c-4.14,17.1-14.76,25.74-32.04,25.74h-1.08Z"/>
      <path class="st7" d="M350.17,1103.31h22.5c.54,6.84,7.02,13.32,21.42,13.32,11.88,0,19.62-4.68,19.62-12.06,0-6.48-4.68-10.26-17.82-11.52l-8.64-.9c-21.96-2.34-34.02-12.78-34.02-29.52,0-19.98,16.38-30.78,39.42-30.78s40.14,10.8,40.86,31.14h-22.5c-.54-6.84-6.66-12.24-18.54-12.24-10.62,0-16.56,4.5-16.56,10.98,0,6.12,4.32,9.36,14.94,10.62l8.64.9c22.86,2.34,36.9,12.96,36.9,30.42,0,19.26-16.92,31.86-42.66,31.86-27,0-42.84-12.06-43.56-32.22Z"/>
      <path class="st7" d="M450.25,1132.47v-79.02h-13.68v-18.72h38.7v97.74h-25.02ZM445.03,1009.35c0-7.92,4.5-13.5,14.4-13.5s14.22,5.58,14.22,13.5-4.5,13.68-14.22,13.68-14.4-5.76-14.4-13.68Z"/>
      <path class="st7" d="M492.54,1132.47v-97.74h19.8v24.12c4.14-18,15.3-27.18,33.48-27.18h1.08c23.22,0,35.46,15.12,35.46,44.82v55.98h-25.02v-58.14c0-12.06-7.38-20.16-19.26-20.16s-20.52,8.28-20.52,20.88v57.42h-25.02Z"/>
      <path class="st7" d="M591.18,1085.31v-3.42c0-25.92,16.92-50.58,49.14-50.58s48.06,23.58,48.06,49.32v9h-73.44c1.62,15.3,9.9,25.56,26.46,25.56,12.06,0,20.16-5.58,22.32-12.78h23.04c-4.32,20.16-21.24,33.48-45.36,33.48-33.66,0-50.22-25.56-50.22-50.58ZM615.3,1074.33h49.14c-1.98-14.22-10.08-22.32-24.12-22.32s-22.5,8.28-25.02,22.32Z"/>
      <path class="st7" d="M689.64,1103.31h22.5c.54,6.84,7.02,13.32,21.42,13.32,11.88,0,19.62-4.68,19.62-12.06,0-6.48-4.68-10.26-17.82-11.52l-8.64-.9c-21.96-2.34-34.02-12.78-34.02-29.52,0-19.98,16.38-30.78,39.42-30.78s40.14,10.8,40.86,31.14h-22.5c-.54-6.84-6.66-12.24-18.54-12.24-10.62,0-16.56,4.5-16.56,10.98,0,6.12,4.32,9.36,14.94,10.62l8.64.9c22.86,2.34,36.9,12.96,36.9,30.42,0,19.26-16.92,31.86-42.66,31.86-27,0-42.84-12.06-43.56-32.22Z"/>
      <path class="st7" d="M776.94,1103.31h22.5c.54,6.84,7.02,13.32,21.42,13.32,11.88,0,19.62-4.68,19.62-12.06,0-6.48-4.68-10.26-17.82-11.52l-8.64-.9c-21.96-2.34-34.02-12.78-34.02-29.52,0-19.98,16.38-30.78,39.42-30.78s40.14,10.8,40.86,31.14h-22.5c-.54-6.84-6.66-12.24-18.54-12.24-10.62,0-16.56,4.5-16.56,10.98,0,6.12,4.32,9.36,14.94,10.62l8.64.9c22.86,2.34,36.9,12.96,36.9,30.42,0,19.26-16.92,31.86-42.66,31.86-27,0-42.84-12.06-43.56-32.22Z"/>
    </g>
  </g>
  <g>
    <g>
      <path d="M870.53,1069.35l.54-3.96c6.84-42.66,34.38-67.14,77.22-67.14,33.84,0,56.88,19.44,54.72,51.66h-29.52c0-16.02-12.42-24.12-29.52-24.12-25.02,0-39.24,16.38-43.38,41.76-3.78,24.48,9.18,42.66,32.76,42.66,13.68,0,24.48-3.24,32.58-12.42l1.8-11.34h-34.38l3.42-21.24h72.36l-3.42,21.24h-10.8l-3.6,22.32c-16.38,21.06-35.46,28.26-62.1,28.26-40.5,0-64.98-28.08-58.68-67.68Z"/>
      <path d="M1005.71,1133.61l20.88-132.47h48.06c30.24,0,50.58,18.18,46.08,46.08l-.36,2.88c-5.04,31.14-28.26,45.9-60.84,45.9h-18.36l-5.94,37.62h-29.52ZM1052.14,1026.69l-7.02,43.74h19.98c14.22,0,23.4-7.74,25.56-21.78,1.98-12.78-5.76-21.96-18.54-21.96h-19.98Z"/>
      <path d="M1110.47,1093.29h28.8c-1.98,12.42,8.82,18.9,23.4,18.9s25.74-3.96,27.9-17.1c1.44-10.26-8.46-13.68-20.52-14.76l-9.9-.9c-24.66-1.98-40.32-17.28-36.54-40.32,4.32-27.9,25.56-40.86,54.9-40.86s46.62,16.92,42.48,42.84h-28.62c1.8-10.98-6.12-18-18-18s-20.16,4.86-22.14,16.02c-1.26,8.64,5.4,13.86,14.76,14.58l9.9.9c27,2.34,46.26,16.2,42.3,40.5-4.68,29.88-28.62,41.94-60.48,41.94s-52.56-16.38-48.24-43.74Z"/>
    </g>
    <g>
      <path class="st8" d="M870.53,1069.35l.54-3.96c6.84-42.66,34.38-67.14,77.22-67.14,33.84,0,56.88,19.44,54.72,51.66h-29.52c0-16.02-12.42-24.12-29.52-24.12-25.02,0-39.24,16.38-43.38,41.76-3.78,24.48,9.18,42.66,32.76,42.66,13.68,0,24.48-3.24,32.58-12.42l1.8-11.34h-34.38l3.42-21.24h72.36l-3.42,21.24h-10.8l-3.6,22.32c-16.38,21.06-35.46,28.26-62.1,28.26-40.5,0-64.98-28.08-58.68-67.68Z"/>
      <path class="st8" d="M1005.71,1133.61l20.88-132.47h48.06c30.24,0,50.58,18.18,46.08,46.08l-.36,2.88c-5.04,31.14-28.26,45.9-60.84,45.9h-18.36l-5.94,37.62h-29.52ZM1052.14,1026.69l-7.02,43.74h19.98c14.22,0,23.4-7.74,25.56-21.78,1.98-12.78-5.76-21.96-18.54-21.96h-19.98Z"/>
      <path class="st8" d="M1110.47,1093.29h28.8c-1.98,12.42,8.82,18.9,23.4,18.9s25.74-3.96,27.9-17.1c1.44-10.26-8.46-13.68-20.52-14.76l-9.9-.9c-24.66-1.98-40.32-17.28-36.54-40.32,4.32-27.9,25.56-40.86,54.9-40.86s46.62,16.92,42.48,42.84h-28.62c1.8-10.98-6.12-18-18-18s-20.16,4.86-22.14,16.02c-1.26,8.64,5.4,13.86,14.76,14.58l9.9.9c27,2.34,46.26,16.2,42.3,40.5-4.68,29.88-28.62,41.94-60.48,41.94s-52.56-16.38-48.24-43.74Z"/>
    </g>
  </g>
</svg>